<svg xmlns="http://www.w3.org/2000/svg" width="300" height="95" viewBox="-61.75 -24.158 300 95"><path fill="#D9D9D9" d="M-60.155-21.633l7.236 81.19 32.476 9.176 32.652-9.176 7.236-81.19h-79.6zM4.44-2.393l-.53 5.117-.175 2.116h-38.123l.883 10.237H2.85l-.35 2.647L.204 44.02.03 45.788l-20.298 5.6v.05h-.176l-20.473-5.647-1.236-15.708h9.881l.708 7.94 11.12 3.002.176-.048 10.943-2.952L-8.09 25.14H-42.68l-2.472-27.532-.176-2.65H4.618L4.44-2.394z"/><path fill="#E3E3E3" d="M-8.09 25.137H-20.27v15.838l10.94-2.953z"/><path fill="#E3E3E3" d="M-20.268-15.104v10.062H4.618L4.44-2.394l-.53 5.118-.175 2.118h-24.003v10.235H2.85l-.35 2.647L.204 44.022.03 45.788l-20.298 5.6v10.286l26.298-7.24 6.176-69.538z"/><g fill="#D9D9D9"><path d="M35.648 8.16v4.585h1.354v3.35h-6.514l.048-3.35h1.354V.313h-1.354v-3.4h6.466v3.4h-1.354V4.64h3.4V.313h-1.403v-3.4h6.49v3.4H42.8v12.432h1.332v3.352h-6.49v-3.35h1.404V8.158h-3.4zM54.547 16.097h-6.395v-3.35h1.26V.312H48.2v2.305h-3.092v-5.634h12.408v5.634h-3.09V.313H53.21v12.432h1.333l.004 3.352zM70.657-3.085h6.662V.36h-1.14v12.363h1.14v3.375H71.28v-3.375h1v-7.06L69.307 16.1h-2.52L63.863 5.662v7.06h1.213V16.1h-6.514v-3.376h1.38V.362h-1.38v-3.447h6.996L68.213 9.87l2.444-12.955zM83.57 12.746h3.59V10.2h3.635v5.897H78.41v-3.35h1.404V.312H78.41v-3.4h6.49v3.4h-1.33v12.433zM93.624 8.396L91.7 6.024v-9.11h11.573v5.16h-3.898V.456h-3.97v4.136h5.94l2 1.95v7.892l-1.71 1.664h-7.94l-2-2v-3.398h3.54v1.95h4.4V8.397h-6.01zM123.077 16.097H112v-3.35h1.377l.025-12.48h-1.45V-3.18h11.125l1.928 1.708V4.44l-1.38 1.638 1.38 1.424v6.505l-1.928 2.09zM121.01.36h-3.853v4.23h3.853V.36zm0 7.678h-3.853v4.708h3.853V8.038zM131.205 12.746h3.59V10.2h3.638v5.897h-12.385v-3.35h1.402V.312h-1.402v-3.4h6.49v3.4h-1.333v12.433zM144.374 16.097h-4.992v-3.305h.69L142.947.314h-.833l-.026-3.4h5.71v3.4h-.644l3.16 12.478h.693v3.305h-5.113v-3.305h.88l-.26-1.09h-2.688l-.286 1.09h.833v3.305zm1.5-6.965l-.738-2.97-.762 2.97h1.5zM158.187 16.097h-6.3v-3.445h1.425V.266h-1.424v-3.35h5.53l2.766 8.2V.195h-1.356v-3.28h6.56v3.35h-1.35v12.386h1.35v3.445h-5.18l-3.187-9.818v6.37h1.167v3.447zM173.353.313v-3.4h6.156v3.4h-1l-4.114 5.454 4.016 6.978h1.098v3.35h-6.156v-3.35h1.05L172.31 8.68l-.927 1.307v2.758h1.354v3.35h-6.467l-.02-3.35h1.376V.313h-1.377v-3.4h6.486v3.4h-1.356v3.85l2.973-3.85h-1z"/></g><g fill="#D9D9D9"><path d="M37.692 44.622h-3.4l-2.328-15.737H30.8v-3.448h5.87v3.448h-.95l.894 9.005 1.928-7.558h2.487l2.114 7.418 1.014-8.865h-1.235v-3.448h5.682v3.448h-1.117l-2.26 15.735h-3.4l-2.067-8.653-2.068 8.655zM51.384 44.622l-1.545-1.546V27.29l1.83-1.853h7.893l1.807 1.78V42.84l-1.76 1.782h-8.226zm6.228-15.735h-4.018v12.405h4.018V28.887zM68.998 44.622h-6.49v-3.35h1.355V28.886H62.51V25.44h10.503l1.81 2.14v7.13l-2.02 1.95h-1.19l2.592 4.61h.713v3.354h-5.372V41.27h.784l-2.377-4.468h-.166v4.47H69l-.002 3.35zm1.856-15.735h-3.066v4.326h3.066v-4.326zM86.447 44.622h-10.58l-.023-3.327h1.426V28.887h-1.426V25.44h10.65l2.115 1.85v15.413l-2.163 1.92zM84.59 28.887h-3.565v12.405h3.566V28.887zM96.81 44.622h-6.606v-3.378h1.33V28.887h-1.33V25.44h9.872l1.846 1.87v7.21l-1.95 1.995H95.43l.027 4.73h1.38l-.027 3.377zm1.094-15.735h-2.52v4.18h2.52v-4.18zM109.313 44.622h-6.49v-3.35h1.354V28.886h-1.354V25.44h10.503l1.81 2.14v7.13l-2.018 1.95h-1.19l2.59 4.61h.716v3.354h-5.374V41.27h.785l-2.378-4.468h-.167v4.47h1.21v3.35h.003zm1.855-15.735h-3.064v4.326h3.064v-4.326zM128.447 44.622h-12.504v-3.35h1.357V28.836h-1.45V25.44h12.597v5.49h-3.634v-2.092h-3.756v4.445h2.877v3.378h-2.877v4.613h3.756V38.73h3.634v5.892zM129.353 38.964h3.757v2.33h4.326V36.66h-6.28l-1.803-1.764V27.13l1.76-1.69h8.176l1.975 1.957v3.7h-3.828v-2.21h-4.326v4.327h6.323l1.76 1.76v7.845l-1.832 1.806h-7.938l-2.067-2.046v-3.616h-.002zM142.07 38.964h3.753v2.33h4.325V36.66h-6.282l-1.8-1.764V27.13l1.76-1.69h8.177l1.974 1.957v3.7h-3.826v-2.21h-4.326v4.327h6.323l1.758 1.76v7.845l-1.83 1.806h-7.938l-2.067-2.046v-3.616zM171.713 44.622h-6.396v-3.35h1.262V28.836h-1.215v2.305h-3.09V25.51h12.406v5.632h-3.09v-2.305h-1.215v12.435h1.333l.005 3.35zM181.053 36.683v4.59h1.354v3.35h-6.51l.043-3.35h1.354V28.836h-1.354V25.44h6.467v3.396h-1.354v4.328h3.396v-4.328h-1.402V25.44h6.487v3.396h-1.33v12.432h1.33v3.352h-6.487v-3.353h1.4v-4.585h-3.395zM203.016 44.622h-12.503v-3.35h1.356V28.836h-1.453V25.44h12.6v5.49h-3.638v-2.092h-3.757v4.445h2.877v3.378h-2.877v4.613h3.756V38.73h3.636v5.892zM216.014 25.44h6.66v3.446h-1.14v12.36h1.14v3.377h-6.036v-3.377h1v-7.06l-2.974 10.435h-2.52l-2.92-10.434v7.06h1.21v3.377h-6.512v-3.377h1.377v-12.36h-1.378V25.44h6.995l2.655 12.954 2.442-12.954zM236.198 44.622h-12.504v-3.35h1.356V28.836h-1.452V25.44h12.6v5.49h-3.638v-2.092h-3.757v4.445h2.878v3.378h-2.877v4.613h3.757V38.73h3.638v5.892z"/></g></svg>